<svg width="964" height="703" viewBox="0 0 964 703" fill="none" xmlns="http://www.w3.org/2000/svg">
<g id="undraw_Ride_a_bicycle_2yok 1" clip-path="url(#clip0)">
<path id="Vector" opacity="0.5" d="M173.424 132.828C168.501 138.572 166.606 146.647 164.486 154.238C147.419 215.419 105.362 264.63 57.4669 299.78C37.1841 314.669 12.4908 334.637 16.9282 361.332C19.3176 375.669 29.8004 386.222 37.5883 397.899C53.9278 422.349 59.2275 455.582 51.4396 484.851C42.5827 518.153 17.8265 549.227 25.4887 582.901C30.2136 603.628 46.2566 618.379 61.6798 631.058C85.7413 650.824 110.569 669.34 136.164 686.607C153.321 698.18 171.573 709.442 191.569 710.91C209.175 712.206 226.421 705.772 243.138 699.424C257.744 693.871 272.718 688.093 284.512 676.969C292.21 669.706 298.345 660.335 306.897 654.393C326.982 640.437 352.78 649.28 375.812 655.257C430.157 669.283 488.319 664.161 540.032 640.799C619.358 604.958 679.82 529.691 757.412 489.307C790.774 471.939 827.064 461.161 857.955 438.793C875.359 426.057 890.315 410.496 902.15 392.812C925.505 358.171 938.134 314.004 934.487 270.77C930.84 227.536 910.405 185.874 878.31 161.467C843.951 135.342 800.556 130.462 761.464 114.778C721.096 98.5762 685.183 70.7323 645.201 53.3471C612.849 39.3185 577.641 32.432 542.159 33.1927C506.678 33.9534 471.824 42.342 440.154 57.743C396.643 78.9024 352.538 128.268 304.076 132.017C269.547 134.608 200.39 101.374 173.424 132.828Z" fill="url(#paint0_linear)"/>
<g id="man-bike">
<path id="Vector_2" d="M340.385 503.542L301.461 465.386L289.298 477.63L328.221 515.786L340.385 503.542Z" fill="#6C63FF"/>
<path id="Vector_3" opacity="0.1" d="M340.385 503.542L301.461 465.386L289.298 477.63L328.221 515.786L340.385 503.542Z" fill="black"/>
<path id="Vector_4" d="M310.308 447.498C310.308 447.498 333.03 435.641 341.811 428.007C347.097 423.433 352.78 419.329 358.795 415.742L387.3 398.581L446.877 394.048L449.627 404.02C449.627 404.02 454.21 418.525 408.381 431.217C362.553 443.908 339.639 463.852 339.639 463.852C339.639 463.852 310.308 473.788 310.308 447.498Z" fill="#DB8B8B"/>
<path id="Vector_5" opacity="0.1" d="M342.208 461.824C340.578 463.075 339.768 463.797 339.768 463.797C339.768 463.797 310.308 473.987 310.308 447.124C310.308 447.124 311.735 446.364 313.991 445.095C316.27 448.829 319.462 451.913 323.262 454.052C327.062 456.19 331.344 457.313 335.699 457.313H338.82L342.208 461.824Z" fill="black"/>
<path id="Vector_6" opacity="0.05" d="M448.781 409.058C446.233 414.396 437.442 423.17 408.393 431.209C371.166 441.514 349.056 456.587 342.071 461.908C340.449 463.131 339.642 463.838 339.642 463.838C339.642 463.838 310.308 473.808 310.308 447.524C310.308 447.524 311.729 446.78 313.975 445.539C320.786 441.85 335.205 433.756 341.787 428.001C347.072 423.426 352.756 419.322 358.773 415.738L387.282 398.58L397.897 397.773L446.865 394.048L449.615 404.018C449.615 404.018 450.257 405.967 448.781 409.058Z" fill="black"/>
<path id="Vector_7" d="M310.837 441.513L286.612 457.281L357.55 515.845C357.55 515.845 367.972 509.538 362.487 502.33C362.487 502.33 344.203 487.013 343.289 465.389L337.804 458.182H334.705C329.465 458.182 324.354 456.579 320.078 453.593C315.803 450.607 312.573 446.386 310.837 441.513V441.513Z" fill="#ABB1D1"/>
<path id="Vector_8" opacity="0.1" d="M448.764 408.377C434.067 401.689 398.19 400.971 398.19 400.971L397.804 397.605L446.872 394.048L449.627 403.566C449.627 403.566 450.243 405.427 448.764 408.377Z" fill="black"/>
<path id="Vector_9" d="M397.804 399.259C397.804 399.259 440.64 400.169 451.577 409.273L446.109 299.118H386.867L397.804 399.259Z" fill="#ABB1D1"/>
<path id="Vector_10" opacity="0.05" d="M397.804 398.445C397.804 398.445 440.64 399.348 451.577 408.377L446.109 299.118H386.867L397.804 398.445Z" fill="black"/>
<path id="Vector_11" d="M433.04 331.788C433.04 331.788 539.601 328.177 541.775 341.907C543.949 355.637 435.214 349.851 435.214 349.851C435.214 349.851 426.519 341.176 433.04 331.788Z" fill="#535461"/>
<path id="Vector_12" opacity="0.05" d="M433.04 331.788C433.04 331.788 539.601 328.177 541.775 341.907C543.949 355.637 435.214 349.851 435.214 349.851C435.214 349.851 426.519 341.176 433.04 331.788Z" fill="black"/>
<path id="Vector_13" d="M345.853 386.884H326.714V550.772H345.853V386.884Z" fill="#6C63FF"/>
<path id="Vector_14" opacity="0.1" d="M345.853 386.884V399.662C339.489 400.488 332.977 401.011 326.714 401.213V386.884H345.853Z" fill="black"/>
<path id="Vector_15" d="M344.276 373.92C341.605 373.715 338.948 373.361 336.318 372.86C326 370.904 299.985 366.801 292.987 373.766C284.206 382.46 287.133 397.685 310.559 399.859C333.985 402.033 374.251 396.236 382.31 387.532C382.31 387.496 367.738 375.704 344.276 373.92Z" fill="#535461"/>
<path id="Vector_16" d="M340.385 431.923L539.793 370.764L546.364 385.876L341.845 454.947L340.385 431.923Z" fill="#6C63FF"/>
<path id="Vector_17" d="M399.627 528.819L543.786 388.675L551.832 400.228L414.256 541.816L399.627 528.819Z" fill="#6C63FF"/>
<path id="Vector_18" opacity="0.1" d="M583.732 481.543C579.012 482.73 574.41 484.319 569.977 486.291L560.947 461.761C565.686 459.753 570.567 458.074 575.551 456.738L583.732 481.543Z" fill="black"/>
<path id="Vector_19" d="M607.428 552.145L597.203 557.937L525.863 360.367L522.667 351.526L539.475 342.106L543.684 355.118L607.428 552.145Z" fill="#6C63FF"/>
<path id="Vector_20" opacity="0.1" d="M544.541 355.507L525.993 360.912L522.667 351.807L540.161 342.106L544.541 355.507Z" fill="black"/>
<path id="Vector_21" d="M435.303 370.904L535.715 336.732C535.715 336.732 553.307 338.912 546.704 353.455L445.569 383.258C445.569 383.258 430.184 384.711 435.303 370.904Z" fill="#535461"/>
<path id="Vector_22" opacity="0.1" d="M323.068 559.148C323.067 564.74 322.627 570.323 321.751 575.848C312.849 575.219 303.649 574.307 294.636 573.396C296.638 562.556 296.389 551.431 293.903 540.689C302.685 538.866 311.652 537.124 320.407 535.547C322.18 543.293 323.073 551.208 323.068 559.148V559.148Z" fill="black"/>
<path id="Vector_23" opacity="0.1" d="M345.853 531.965V550.772H326.714V534.856C333.336 533.751 339.774 532.77 345.853 531.965Z" fill="black"/>
<path id="Vector_24" d="M222.973 558.961C222.973 558.961 376.427 519.411 388.843 534.503C401.26 549.595 414.416 569.747 375.724 576.938C337.032 584.128 220.079 564.704 220.079 564.704L222.973 558.961Z" fill="#6C63FF"/>
<path id="Vector_25" opacity="0.1" d="M298.46 491.611L279.061 509.576C275.625 505.114 271.742 501.024 267.472 497.373L285.582 478.231C290.244 482.311 294.553 486.787 298.46 491.611V491.611Z" fill="black"/>
<path id="Vector_26" d="M218.256 550.641L333.075 431.662L336.739 459.227L224.104 561.519L218.256 550.641Z" fill="#6C63FF"/>
<path id="Vector_27" opacity="0.1" d="M216.743 570.716C223.191 570.716 228.418 565.58 228.418 559.244C228.418 552.908 223.191 547.772 216.743 547.772C210.295 547.772 205.068 552.908 205.068 559.244C205.068 565.58 210.295 570.716 216.743 570.716Z" fill="black"/>
<path id="Vector_28" opacity="0.1" d="M602.871 569.579C609.415 569.579 614.72 564.366 614.72 557.937C614.72 551.507 609.415 546.294 602.871 546.294C596.328 546.294 591.023 551.507 591.023 557.937C591.023 564.366 596.328 569.579 602.871 569.579Z" fill="black"/>
<path id="Vector_29" opacity="0.1" d="M396.437 570.474C409.272 570.474 419.678 560.049 419.678 547.19C419.678 534.33 409.272 523.905 396.437 523.905C383.601 523.905 373.196 534.33 373.196 547.19C373.196 560.049 383.601 570.474 396.437 570.474Z" fill="black"/>
<path id="Vector_30" d="M397.348 570.474C410.184 570.474 420.589 560.049 420.589 547.19C420.589 534.33 410.184 523.905 397.348 523.905C384.512 523.905 374.107 534.33 374.107 547.19C374.107 560.049 384.512 570.474 397.348 570.474Z" fill="#535461"/>
<path id="Vector_31" d="M391.417 545.58L391.41 545.586C388.668 547.622 388.108 551.48 390.158 554.203L408.683 578.811C410.733 581.534 414.617 582.091 417.358 580.054L417.366 580.049C420.107 578.013 420.667 574.154 418.617 571.432L400.092 546.823C398.042 544.1 394.158 543.544 391.417 545.58Z" fill="#6C63FF"/>
<path id="Vector_32" d="M502.616 224.903L500.46 252.256C500.212 255.721 500.257 259.201 500.596 262.658C500.877 265.719 500.596 271.079 497.606 279.255C493.768 289.7 491.784 300.738 491.745 311.869V343.001L470.907 339.367C470.907 339.367 471.813 295.762 468.19 288.494C464.566 281.226 470.907 216.727 470.907 216.727L502.616 224.903Z" fill="#DB8B8B"/>
<path id="Vector_33" opacity="0.05" d="M501.538 238.457L500.451 252.256C500.206 255.718 500.254 259.195 500.596 262.649C500.877 265.71 500.596 271.07 497.606 279.255C493.767 289.7 491.783 300.738 491.744 311.869V343.001L470.907 339.367C470.907 339.367 471.813 295.762 468.189 288.494C465.625 283.343 468.053 249.485 469.693 230.163C470.372 222.214 470.907 216.727 470.907 216.727L502.616 224.903L501.538 238.457Z" fill="black"/>
<path id="Vector_34" d="M399.341 433.452L391.477 478.162C390.485 484.131 388.964 490 386.931 495.7C382.321 508.295 385.267 525.952 387.503 535.585C388.494 539.838 389.322 542.527 389.322 542.527L365.682 555.25L358.408 549.797V546.162L357.499 465.285C352.044 452.562 353.862 433.479 357.499 426.209C358.533 423.82 359.26 421.31 359.663 418.739C361.481 408.997 362.045 395.312 362.045 395.312C362.045 395.312 376.593 370.776 393.868 387.133C400.232 393.158 402.651 401.037 403.16 408.579C404.051 421.493 399.341 433.452 399.341 433.452Z" fill="#DB8B8B"/>
<path id="Vector_35" opacity="0.1" d="M403.272 408.859C390.589 416.425 368.523 418.564 359.525 419.124C361.353 409.282 361.92 395.455 361.92 395.455C361.92 395.455 376.552 370.665 393.927 387.191C400.328 393.279 402.76 401.239 403.272 408.859Z" fill="black"/>
<path id="Vector_36" d="M433.368 386.551C423.691 391.678 414.546 397.743 406.067 404.658C391.506 416.428 355.105 417.333 355.105 417.333V403.753C356.015 387.456 340.544 369.349 319.614 318.65C306.245 286.274 309.949 267.95 314.372 258.896C316.883 253.781 319.614 251.654 319.614 251.654L433.368 273.382L437.436 285.514L446.109 311.407C446.109 311.407 414.257 313.217 408.797 315.934C403.337 318.65 406.977 343.094 406.977 343.094C401.517 368.444 433.368 386.551 433.368 386.551Z" fill="#ABB1D1"/>
<path id="Vector_37" opacity="0.1" d="M502.616 225.145L501.551 239.102C485.841 243.779 474.627 228.887 474.627 228.887C472.988 229.342 471.378 229.902 469.805 230.562C470.482 222.377 471.015 216.727 471.015 216.727L502.616 225.145Z" fill="black"/>
<path id="Vector_38" opacity="0.1" d="M437.906 285.73C437.476 289.985 437.476 292.654 437.476 292.654C437.476 292.654 416.432 309.966 380.749 283.543C345.066 257.12 313.043 264.409 313.043 264.409C313.043 264.409 313.418 262.296 314.177 258.943C316.702 253.795 319.447 251.654 319.447 251.654L433.816 273.521L437.906 285.73Z" fill="black"/>
<path id="Vector_39" d="M512.977 198.998C510.6 217.481 509.807 240.777 509.807 240.777C488.855 257.126 472.458 236.236 472.458 236.236C452.672 241.531 443.372 258.797 438.99 273.865C436.643 282.015 435.339 290.429 435.109 298.905C435.109 298.905 429.571 303.446 419.368 304.355C409.721 305.163 395.893 302.656 378.63 289.823C343.103 263.484 311.22 270.75 311.22 270.75C311.22 270.75 317.596 234.42 332.172 223.521C346.747 212.622 357.678 198.998 375.897 157.218C394.116 115.439 431.465 125.43 431.465 125.43C431.465 125.43 433.287 117.255 466.992 125.43C475.202 127.575 482.801 131.589 489.192 137.155C507.22 152.268 515.965 175.71 512.977 198.998Z" fill="white"/>
<path id="Vector_40" d="M481.635 136.834C481.589 138.044 481.49 139.391 481.327 140.893C479.516 157.275 477.706 155.454 457.791 159.095C445.407 161.361 438.97 150.959 435.875 142.768C434.754 139.8 433.909 136.736 433.349 133.612L476.801 126.331C476.801 126.331 482.006 124.866 481.635 136.834Z" fill="#DB8B8B"/>
<path id="Vector_41" opacity="0.05" d="M441.552 264.305C439.18 272.414 437.862 280.785 437.63 289.219C437.63 289.219 432.032 293.737 421.721 294.641C421.431 294.065 421.209 293.459 421.059 292.833C419.217 284.7 405.408 270.242 405.408 270.242C396.202 262.109 394.361 247.65 394.361 247.65L379.171 203.822L374.107 199.756C374.107 199.756 395.281 183.49 413.694 197.045C432.106 210.6 426.582 239.517 426.582 239.517L430.265 249.457C434.085 252.62 437.97 258.196 441.552 264.305Z" fill="black"/>
<path id="Vector_42" d="M376.841 198.869L396.892 246.819C396.892 246.819 398.715 261.294 407.829 269.436C407.829 269.436 421.501 283.912 423.323 292.054C425.146 300.196 450.666 321.909 450.666 321.909C450.666 321.909 474.362 343.622 476.185 351.765C476.185 351.765 498.059 358.098 495.325 370.764C495.325 370.764 511.73 354.479 495.325 339.099C478.919 323.719 457.046 292.054 457.046 292.054C457.046 292.054 444.286 258.58 432.437 248.628L428.792 238.676C428.792 238.676 434.26 209.726 416.032 196.155C397.804 182.585 376.841 198.869 376.841 198.869Z" fill="#DB8B8B"/>
<path id="Vector_43" opacity="0.1" d="M388.69 542.474L364.993 555.25L357.702 549.774V546.124C365.89 545.542 373.845 543.138 380.988 539.088C383.176 537.847 385.235 536.624 386.885 535.547C387.842 539.773 388.69 542.474 388.69 542.474Z" fill="black"/>
<path id="Vector_44" opacity="0.1" d="M416.032 160.783L428.792 211.189C428.792 211.189 389.601 217.604 381.398 211.189C373.196 204.773 357.702 202.941 357.702 202.941C357.702 202.941 374.107 155.285 383.221 149.786C392.335 144.287 416.032 160.783 416.032 160.783Z" fill="black"/>
<path id="Vector_45" d="M416.032 158.992L428.792 209.398C428.792 209.398 389.601 215.813 381.398 209.398C373.196 202.982 357.702 201.149 357.702 201.149C357.702 201.149 374.107 153.493 383.221 147.995C392.335 142.496 416.032 158.992 416.032 158.992Z" fill="white"/>
<path id="Vector_46" opacity="0.1" d="M481.635 136.141C479.099 139.727 475.875 142.744 472.159 145.005C468.444 147.267 464.316 148.726 460.03 149.293C455.743 149.859 451.389 149.521 447.235 148.299C443.081 147.078 439.215 144.998 435.875 142.188C434.754 139.164 433.909 136.041 433.349 132.857L476.801 125.437C476.801 125.437 482.006 123.943 481.635 136.141Z" fill="black"/>
<path id="Vector_47" d="M487.112 116.824C487.112 125.268 483.752 133.367 477.771 139.338C471.789 145.309 463.677 148.664 455.218 148.664C446.759 148.664 438.646 145.309 432.665 139.338C426.684 133.367 423.323 125.268 423.323 116.824C423.323 116.296 423.323 115.769 423.323 115.241C423.534 106.797 427.096 98.7815 433.226 92.9589C439.356 87.1362 447.552 83.983 456.011 84.1929C464.47 84.4028 472.498 87.9586 478.331 94.0781C484.164 100.198 487.322 108.38 487.112 116.824V116.824Z" fill="#DB8B8B"/>
<path id="Vector_48" opacity="0.1" d="M487.978 116.506C487.981 119.412 487.576 122.305 486.775 125.101C484.31 125.632 481.739 125.399 479.412 124.434C476.004 123.11 473.079 120.831 469.807 119.191C460.594 114.579 449.632 115.489 439.426 117.011C434.359 117.768 428.609 118.47 424.627 115.281C424.49 115.175 424.359 115.06 424.235 114.939C424.445 106.577 428.007 98.6395 434.137 92.8735C440.267 87.1075 448.463 83.9849 456.922 84.1928C465.381 84.4007 473.41 87.9219 479.243 93.9819C485.075 100.042 488.234 108.144 488.024 116.506H487.978Z" fill="black"/>
<path id="Vector_49" opacity="0.05" d="M338.562 214.04C338.562 214.04 362.393 220.405 369.725 236.772C377.058 253.14 396.892 256.131 396.892 256.131" fill="black"/>
<path id="Vector_50" d="M427.88 572.266H373.196V589.281H427.88V572.266Z" fill="#6C63FF"/>
<path id="Vector_51" opacity="0.1" d="M427.88 572.266H373.196V589.281H427.88V572.266Z" fill="black"/>
<path id="Vector_52" d="M381.071 540.327C385.982 537.605 390.29 534.882 390.665 533.756C390.665 533.756 403.058 546.735 414.097 550.765C417.809 552.126 421.362 553.878 424.697 555.993C429.069 558.716 435.306 561.919 440.967 561.919C440.967 561.919 453.772 572.811 429.078 574.626C404.384 576.441 346.765 570.088 346.765 570.088L350.423 547.398C361.112 548.02 371.755 545.565 381.071 540.327Z" fill="#ABB1D1"/>
</g>
<g id="left-wheel">
<path id="Vector_53" d="M220.311 652.668L214.597 564.956L214.478 564.768L208.718 566.738L182.214 642.727L140.061 613.362L207.205 565.529L207.269 565.341L207.652 565.207L211.981 562.117L141.583 523.33L124.339 541.958L127.074 559.422L208.025 560.873V562.664L125.561 561.213L122.444 541.385L146.049 515.897L181.366 475.418L181.995 477.092L189.469 469.032L217.231 473.922V472.839L219.053 472.892V474.245L260.395 481.517L221.851 557.29L216.228 561.293V561.741V562.243L305.364 531.722L294.783 613.406L219.135 566.058L216.474 564.589L261.079 635.231L220.311 652.668ZM216.665 568.18L221.997 650.017L258.499 634.452L216.665 568.18ZM143.224 613.344L181.312 639.879L206.23 568.467L143.224 613.344ZM218.251 563.497L220.156 564.544L293.388 610.397L303.231 534.391L218.251 563.497ZM211.78 557.048L214.068 560.676L214.469 560.389L217.203 475.731L190.098 470.967L182.661 479.027L211.78 557.048ZM143.042 522.068L211.252 559.681L210.067 557.774L181.284 480.514L147.389 517.115L143.042 522.068ZM219.053 476.045L216.319 559.081L220.439 556.144L257.725 482.869L219.053 476.045Z" fill="#535461"/>
<path id="Vector_54" d="M320.284 538.895C316.629 522.937 309.229 508.039 298.674 495.389C294.756 490.688 290.436 486.326 285.76 482.349C267.781 467.097 245.157 458.142 221.438 456.89C197.72 455.637 174.25 462.159 154.711 475.431C135.173 488.703 120.672 507.974 113.485 530.219C106.297 552.465 106.831 576.425 115 598.341C123.17 620.257 138.514 638.886 158.624 651.307C178.734 663.727 202.472 669.234 226.112 666.965C249.752 664.695 271.956 654.777 289.24 638.767C306.523 622.757 317.907 601.561 321.605 578.506C322.466 573.078 322.899 567.593 322.9 562.099C322.906 554.293 322.028 546.511 320.284 538.895ZM215.298 641.303C198.681 641.286 182.473 636.241 168.877 626.853C155.281 617.465 144.958 604.19 139.31 588.834C133.663 573.478 132.966 556.785 137.313 541.026C141.661 525.267 150.843 511.206 163.61 500.755C176.377 490.304 192.11 483.97 208.67 482.615C225.23 481.26 241.812 484.949 256.163 493.181C270.514 501.412 281.936 513.788 288.877 528.623C295.818 543.459 297.94 560.035 294.956 576.097C291.538 594.405 281.695 610.956 267.141 622.87C252.586 634.784 234.241 641.307 215.298 641.303V641.303Z" fill="#535461"/>
<path id="Vector_55" d="M215.298 573.213C221.746 573.213 226.974 568.077 226.974 561.741C226.974 555.405 221.746 550.269 215.298 550.269C208.85 550.269 203.623 555.405 203.623 561.741C203.623 568.077 208.85 573.213 215.298 573.213Z" fill="#535461"/>
</g>
<g id="hat">
<path id="Vector_56" d="M401.59 98.4464C403.531 104.429 412.855 104.617 417.64 109.023C420.128 111.316 421.285 114.701 424.019 116.743C427.82 119.591 433.307 118.964 438.146 118.283C447.889 116.922 458.352 116.107 467.138 120.236C470.255 121.695 473.053 123.737 476.307 124.928C479.561 126.119 483.598 126.263 486.242 124.149C488.356 122.457 489.131 119.671 491.045 117.809C492.53 116.34 494.599 115.516 496.294 114.226C500.013 111.468 501.617 106.972 502.674 102.673C504.862 93.8253 505.49 84.2876 501.763 75.8961C498.035 67.5047 489.067 60.6715 479.278 61.1104C476.28 61.2447 473.354 62.0059 470.365 62.3283C462.572 63.1075 454.871 60.5372 447.051 60.0984C444.783 59.8271 442.482 60.1356 440.37 60.9939C438.778 61.8634 437.405 63.0721 436.351 64.5314C432.771 69.1395 430.319 74.4962 429.187 80.1859C428.276 84.4756 428.23 88.3624 422.88 89.0251C416.801 89.8132 397.479 85.7921 401.59 98.4464Z" fill="#472727"/>
</g>
<g id="right-wheel">
<path id="Vector_57" d="M605.904 648.765L600.198 561.089L600.08 560.901L594.32 562.871L567.807 638.824L525.654 609.449L592.816 561.617L592.88 561.429L593.263 561.295L597.592 558.205L527.194 519.418L509.941 538.046L512.676 555.51L593.609 556.925V558.716L511.144 557.265L508.046 537.464L531.642 511.985L566.932 471.533L567.561 473.207L575.034 465.147L602.869 470.046V468.962L604.692 469.016V470.368L646.033 477.64L607.453 553.45L601.83 557.453V557.901V558.402L690.975 527.881L680.393 609.566L604.746 562.217L602.085 560.749L646.69 631.4L605.904 648.765ZM602.258 564.277L607.59 646.114L644.092 630.549L602.258 564.277ZM528.826 609.449L566.914 635.985L591.832 564.573L528.826 609.449ZM603.853 559.602L605.758 560.65L678.99 606.503L688.833 530.497L603.853 559.602ZM597.382 553.154L599.67 556.781L600.071 556.495L602.805 471.837L575.7 467.055L568.263 475.115L597.382 553.154ZM528.671 518.182L596.881 555.796L595.696 553.889L566.914 476.628L533.009 513.239L528.671 518.182ZM604.655 472.159L601.921 555.169L606.04 552.232L643.326 478.957L604.655 472.159Z" fill="#535461"/>
<path id="Vector_58" d="M602.222 450.469C592.548 450.458 582.918 451.736 573.594 454.266C568.785 455.569 564.077 457.206 559.504 459.165C535.142 469.542 515.562 488.429 504.552 512.172C493.543 535.914 491.886 562.825 499.902 587.699C507.918 612.573 525.038 633.641 547.949 646.829C570.86 660.017 597.935 664.386 623.936 659.092C649.936 653.798 673.015 639.217 688.707 618.169C704.398 597.122 711.588 571.104 708.886 545.148C706.183 519.192 693.78 495.144 674.075 477.655C654.371 460.166 628.765 450.479 602.213 450.469H602.222ZM601.857 635.036C583.373 635.029 565.447 628.808 551.057 617.409C536.667 606.009 526.679 590.115 522.751 572.367C518.823 554.619 521.192 536.084 529.464 519.842C537.736 503.599 551.414 490.626 568.226 483.076C572.502 481.153 576.943 479.603 581.496 478.446C592.627 475.607 604.245 475.13 615.577 477.047C626.91 478.963 637.697 483.23 647.221 489.562C656.745 495.893 664.787 504.146 670.813 513.77C676.839 523.393 680.709 534.168 682.167 545.376C683.625 556.584 682.637 567.969 679.269 578.772C675.901 589.576 670.229 599.551 662.632 608.033C655.036 616.515 645.687 623.311 635.21 627.967C624.732 632.622 613.365 635.032 601.866 635.036H601.857Z" fill="#535461"/>
<path id="Vector_59" d="M601.748 568.692C608.196 568.692 613.423 563.556 613.423 557.22C613.423 550.884 608.196 545.748 601.748 545.748C595.3 545.748 590.073 550.884 590.073 557.22C590.073 563.556 595.3 568.692 601.748 568.692Z" fill="#535461"/>
</g>
</g>
<defs>
<linearGradient id="paint0_linear" x1="858.144" y1="149.73" x2="33.791" y2="653.919" gradientUnits="userSpaceOnUse">
<stop offset="0.012742" stop-color="#FF63C1"/>
<stop offset="1" stop-color="#6C63FF" stop-opacity="0"/>
</linearGradient>
<clipPath id="clip0">
<rect width="964" height="703" fill="white"/>
</clipPath>
</defs>
</svg>
